<svg id="Layer_1" data-name="Layer 1" xmlns="http://www.w3.org/2000/svg" viewBox="0 0 733.28 841.89"><defs><style>.cls-1{fill:#fff;}</style></defs><path class="cls-1" d="M455.88,517.34a96.42,96.42,0,1,1,46.36-181,133.18,133.18,0,1,0,0,169.13A96.49,96.49,0,0,1,455.88,517.34Z"/><path class="cls-1" d="M559.44,67.22H209c-40.15,0-72.82,33.8-72.82,75.34q0,278.75,0,557.56c.4,41.11,33.07,74.55,72.81,74.55H559.44c39.75,0,72.42-33.44,72.82-74.64q0-278.73,0-557.47C632.27,101,599.6,67.22,559.44,67.22ZM176.2,144.39a33.62,33.62,0,0,1,33.54-33.62h349a33.62,33.62,0,0,1,33.54,33.62l0,44h0L591.78,703a33.74,33.74,0,0,1-33.09,28.09h-349A33.74,33.74,0,0,1,176.65,703Z"/></svg>